<?xml version="1.0" standalone="no"?>
<!DOCTYPE svg PUBLIC "-//W3C//DTD SVG 20010904//EN"
 "http://www.w3.org/TR/2001/REC-SVG-20010904/DTD/svg10.dtd">
<svg version="1.0" xmlns="http://www.w3.org/2000/svg"
 width="1600.000000pt" height="1600.000000pt" viewBox="0 0 1600.000000 1600.000000"
 preserveAspectRatio="xMidYMid meet">
<metadata>
Created by potrace 1.11, written by Peter Selinger 2001-2013
</metadata>
<g transform="translate(0.000000,1600.000000) scale(0.100000,-0.100000)"
fill="#000000" stroke="none">
<path d="M7769 14496 c-2 -2 -42 -6 -89 -10 -47 -4 -99 -8 -115 -11 -17 -2
-53 -6 -80 -9 -65 -8 -93 -13 -255 -43 -153 -28 -303 -66 -500 -124 -74 -22
-166 -49 -205 -59 -97 -26 -345 -115 -432 -155 -17 -8 -34 -15 -37 -15 -14 0
-288 -137 -386 -193 -174 -100 -418 -266 -525 -358 -239 -207 -354 -322 -519
-519 -43 -52 -84 -99 -90 -105 -10 -8 -163 -186 -229 -265 -140 -167 -366
-495 -506 -735 -389 -665 -670 -1483 -756 -2200 -3 -27 -8 -68 -11 -90 -22
-178 -29 -335 -29 -640 0 -278 8 -550 20 -653 2 -20 7 -73 10 -117 7 -102 22
-249 40 -395 3 -19 7 -55 10 -80 3 -25 7 -56 10 -70 3 -14 7 -43 10 -65 12
-104 77 -475 110 -625 9 -41 19 -86 21 -100 4 -20 68 -287 78 -325 55 -209
118 -431 146 -510 11 -33 20 -61 20 -63 -3 -7 80 -246 152 -440 70 -189 173
-441 253 -617 46 -101 247 -507 281 -565 17 -30 43 -75 56 -100 14 -25 54 -94
89 -153 35 -59 69 -116 74 -126 21 -38 275 -421 294 -443 6 -7 57 -74 112
-148 321 -428 710 -823 1094 -1112 469 -352 957 -582 1460 -687 77 -16 165
-32 195 -36 30 -4 64 -9 74 -11 137 -26 577 -26 766 0 14 2 50 7 80 11 45 5
136 23 262 50 60 13 223 61 320 94 390 135 764 344 1135 633 64 50 124 99 133
107 9 9 51 45 93 81 91 77 397 386 482 485 33 38 66 76 73 83 174 186 602 795
753 1071 13 24 29 51 34 60 43 70 191 353 273 521 102 211 119 249 167 360 15
36 38 89 51 118 13 29 24 58 24 65 0 7 4 17 9 23 22 24 205 535 288 804 99
324 208 759 258 1030 3 14 7 36 10 50 8 40 43 241 49 284 4 21 8 48 11 60 2
12 7 44 10 71 3 28 8 59 10 70 2 11 7 43 10 70 7 61 15 128 21 174 2 18 7 59
10 90 3 31 7 72 9 91 2 19 7 76 10 125 4 50 8 100 10 113 18 112 27 866 12
1057 -8 112 -13 153 -33 323 -3 26 -16 115 -30 197 -150 914 -538 1818 -1103
2568 -136 182 -230 294 -366 441 -16 18 -46 52 -65 77 -54 68 -198 227 -269
297 -466 460 -1013 776 -1686 973 -402 118 -658 180 -845 204 -30 4 -63 9 -72
10 -9 2 -48 7 -85 10 -37 4 -79 9 -93 12 -28 5 -565 14 -571 9z m3401 -3149
c71 -53 222 -205 282 -282 25 -34 62 -91 81 -127 40 -76 106 -236 113 -275 3
-14 9 -34 14 -43 5 -9 11 -28 14 -41 3 -13 15 -64 26 -114 23 -103 26 -119 35
-195 4 -30 9 -63 11 -73 25 -134 24 -597 -1 -805 -10 -79 -26 -198 -30 -222
-2 -14 -6 -41 -9 -60 -4 -29 -58 -288 -70 -340 -17 -69 -42 -160 -66 -240 -16
-52 -56 -214 -90 -358 -34 -145 -63 -269 -65 -275 -3 -7 -6 -23 -9 -37 -2 -14
-16 -72 -30 -130 -25 -105 -40 -185 -50 -270 -7 -54 -16 -118 -21 -145 -2 -11
-4 -30 -4 -41 -1 -17 -11 -24 -48 -33 -194 -49 -379 -170 -440 -288 -37 -72 0
-247 88 -408 22 -42 39 -78 37 -81 -3 -2 -29 6 -59 20 -140 62 -370 119 -422
105 -58 -16 -143 -87 -339 -282 -112 -112 -220 -215 -240 -231 l-38 -28 -37
28 c-101 75 -283 250 -383 369 -23 28 -52 61 -63 75 -56 66 -182 238 -256 350
-46 69 -99 144 -117 166 -47 59 -166 173 -249 239 -77 62 -302 215 -317 215
-8 0 -3 119 7 172 3 15 10 176 20 513 2 55 4 268 5 474 1 205 6 369 10 365 5
-5 33 -58 63 -119 100 -202 247 -439 344 -555 107 -127 227 -224 333 -270 81
-35 193 -34 278 2 106 44 172 89 266 183 167 165 292 392 386 705 68 225 94
318 105 370 23 107 34 161 39 190 3 19 7 44 10 55 2 11 7 47 11 80 4 33 9 74
12 90 8 61 10 412 2 470 -5 33 -12 83 -15 110 -4 28 -14 76 -24 108 -10 31
-14 57 -9 57 6 0 42 -17 82 -39 40 -21 123 -65 186 -97 110 -56 117 -58 205
-62 201 -9 359 85 451 267 43 87 59 171 52 269 -13 152 -37 237 -125 426 -20
43 -52 102 -69 130 -18 28 -33 54 -33 58 0 10 93 -45 160 -95z m-6192 31
c-183 -282 -252 -552 -198 -772 46 -183 123 -278 275 -336 95 -36 304 -35 341
3 4 4 13 7 21 7 7 0 46 26 86 58 73 59 218 152 237 152 7 0 7 -6 1 -17 -14
-28 -50 -209 -59 -303 -10 -96 -8 -355 2 -445 4 -33 9 -73 11 -90 29 -239 120
-589 212 -815 78 -191 177 -345 303 -470 138 -137 254 -194 396 -195 73 0 87
3 155 37 85 42 119 68 209 158 159 161 325 404 474 694 l56 110 1 -45 c0 -24
2 -73 4 -109 3 -71 15 -410 20 -585 2 -60 6 -213 10 -340 4 -126 8 -287 10
-357 l2 -126 -41 -23 c-44 -24 -228 -148 -236 -158 -3 -4 -25 -22 -50 -41
-150 -116 -242 -217 -370 -410 -252 -378 -518 -668 -715 -780 l-43 -24 -74 56
c-75 58 -172 154 -293 293 -39 44 -85 93 -104 110 -19 16 -40 35 -46 41 -6 6
-26 19 -45 29 -60 31 -189 6 -395 -77 -55 -23 -106 -46 -114 -52 -22 -17 2 25
28 48 36 33 102 143 126 212 26 75 26 142 0 197 -23 50 -105 127 -183 174 -65
39 -230 103 -265 103 -25 0 -25 1 -41 140 -26 220 -26 219 -176 690 -39 124
-75 239 -80 255 -14 46 -100 378 -104 400 -49 253 -59 309 -77 445 -6 41 -12
85 -14 97 -27 161 -27 719 0 873 2 14 11 66 20 116 30 176 102 395 172 522
152 276 293 431 495 543 64 35 75 36 56 7z m2485 -5568 c20 -8 37 -19 38 -25
0 -5 2 -19 4 -30 2 -11 7 -47 10 -80 3 -33 8 -71 10 -85 3 -14 7 -43 10 -65 4
-38 51 -370 60 -425 14 -89 46 -289 49 -310 4 -23 18 -100 30 -175 3 -16 8
-41 10 -55 3 -14 8 -41 10 -60 3 -19 7 -44 10 -55 2 -11 12 -66 22 -122 10
-57 21 -103 25 -103 21 0 132 434 168 660 6 36 13 74 15 85 2 11 7 47 11 80 3
32 8 62 10 65 2 3 6 43 10 90 4 47 9 99 11 115 6 46 18 251 18 327 1 83 16 91
17 11 0 -32 2 -65 3 -73 2 -8 6 -51 10 -95 6 -81 22 -229 32 -297 2 -21 6 -50
8 -65 4 -32 17 -120 21 -143 2 -8 6 -35 9 -60 4 -25 11 -67 17 -95 5 -27 16
-88 24 -135 9 -47 25 -121 35 -165 10 -44 21 -91 24 -105 15 -82 50 -200 57
-193 12 12 101 412 123 553 3 19 8 49 12 65 7 34 8 40 23 145 6 41 16 100 21
130 5 30 12 80 15 110 3 30 8 66 10 80 3 14 7 51 10 83 3 32 7 77 10 100 2 23
7 69 10 102 12 147 16 189 21 196 2 4 23 7 47 6 31 -1 43 -5 43 -16 1 -23 14
-181 19 -216 2 -16 7 -59 10 -95 4 -36 9 -74 11 -84 2 -11 8 -54 14 -95 12
-87 11 -80 44 -266 27 -151 29 -157 50 -255 47 -216 49 -223 59 -199 39 105
226 822 273 1047 17 80 17 82 47 82 40 0 82 -37 83 -75 2 -56 15 -270 19 -305
2 -19 6 -71 10 -115 3 -44 8 -98 11 -120 2 -22 6 -62 9 -90 7 -83 17 -179 20
-195 1 -8 6 -40 9 -70 15 -117 18 -139 36 -254 11 -65 21 -121 23 -123 2 -2
16 30 31 69 15 40 32 82 37 93 4 11 15 38 22 60 8 22 35 96 61 165 59 154 246
716 246 736 0 24 28 27 62 7 l33 -19 1 -390 c1 -214 4 -409 7 -434 3 -25 8
-79 12 -120 3 -41 8 -86 10 -100 2 -14 7 -47 10 -75 9 -74 26 -175 31 -175 21
0 261 746 335 1039 l10 43 22 -23 c22 -23 22 -29 24 -354 2 -363 2 -377 10
-355 8 23 69 161 131 298 30 67 60 122 65 122 9 0 5 -131 -6 -175 -43 -178
-154 -411 -356 -747 -26 -43 -147 -235 -217 -343 -35 -55 -78 -129 -95 -164
-17 -36 -43 -83 -57 -105 -30 -46 -132 -188 -141 -196 -14 -12 -108 -126 -117
-142 -5 -9 -58 -48 -118 -88 -112 -73 -125 -76 -126 -25 0 24 -98 316 -110
328 -5 6 -37 -94 -45 -143 -2 -13 -37 -159 -46 -190 -5 -19 -16 -68 -24 -109
-8 -41 -16 -75 -17 -77 -8 -7 -162 -74 -165 -71 -2 2 -38 106 -79 231 -42 125
-78 225 -80 224 -15 -16 -89 -355 -99 -458 -10 -94 -12 -98 -53 -109 -62 -18
-72 -15 -73 22 0 17 -2 40 -4 49 -2 10 -6 42 -9 70 -3 29 -8 67 -11 83 -14 75
-47 234 -57 270 -5 22 -12 51 -14 65 -4 23 -26 104 -71 259 l-16 55 -44 -125
c-96 -270 -209 -659 -229 -786 -4 -24 -10 -43 -14 -43 -9 0 -13 15 -30 120
-13 76 -91 381 -124 490 -13 41 -38 125 -56 185 -46 156 -50 162 -67 100 -8
-27 -18 -63 -23 -80 -34 -119 -103 -420 -114 -500 -4 -23 -9 -52 -11 -65 -3
-14 -8 -52 -11 -85 -7 -77 -12 -106 -18 -113 -7 -6 -98 18 -110 29 -11 10 -10
8 -20 89 -6 47 -54 340 -75 450 -6 34 -7 32 -38 -55 -34 -95 -77 -228 -108
-331 l-18 -62 -67 23 c-102 35 -107 38 -114 92 -4 26 -27 148 -52 271 -24 122
-44 226 -44 230 0 12 -27 -32 -38 -63 -6 -16 -20 -55 -32 -85 -36 -93 -70
-204 -70 -228 0 -23 -1 -23 -70 14 -132 69 -375 359 -472 563 -17 36 -64 109
-103 161 -301 398 -552 844 -614 1089 -21 85 -28 186 -13 195 4 2 18 -23 31
-57 25 -65 167 -367 173 -367 2 0 3 156 2 346 -1 345 -1 346 21 370 l23 24 21
-82 c12 -46 36 -132 53 -193 37 -135 231 -723 252 -763 8 -16 12 -32 9 -36 -4
-3 -1 -6 4 -6 6 0 16 33 23 73 16 97 18 111 26 192 3 39 8 78 10 87 16 89 26
694 14 862 -3 51 -1 61 16 70 10 6 31 18 46 28 l26 17 86 -262 c92 -279 103
-313 228 -647 75 -202 97 -255 98 -238 0 4 11 76 24 160 14 84 28 178 31 208
3 30 7 71 10 90 13 104 15 125 31 285 1 17 5 68 9 115 3 47 8 99 10 115 2 17
7 86 11 155 4 69 8 136 9 149 1 19 7 25 30 28 17 2 42 12 56 23 l27 19 7 -42
c4 -23 9 -46 10 -52 2 -5 5 -26 9 -45 28 -169 242 -968 266 -993 10 -11 86
321 114 498 3 17 12 71 20 120 8 50 22 146 31 215 8 69 17 139 20 155 2 17 7
66 10 110 16 188 13 168 23 163 4 -2 24 -10 45 -18z"/>
</g>
</svg>
